<svg xmlns="http://www.w3.org/2000/svg" viewBox="0 0 430 430">
  <defs>
    <style>
      .cls-1 {
        isolation: isolate;
      }

      .cls-2 {
        fill: #121330;
      }

      .cls-3 {
        fill: #121330;
      }

      .cls-4 {
        fill: #121330;
      }

      .cls-5 {
        fill: #121330;
      }

      .cls-6 {
        fill: #393247;
        mix-blend-mode: multiply;
        opacity: 0.5;
      }
    </style>
  </defs>
  <g class="cls-1">
    <g id="Warstwa_1" data-name="Warstwa 1">
      <g>
        <polyline class="cls-2" points="226.55 370.67 275.71 309.33 264.66 222.47 186.01 226.84 166.05 291.15 124.32 309.39 137.75 339.5 191.93 316.78 224.51 257.74 224.51 257.74 235.07 303.31 200.33 348.92"/>
        <path class="cls-3" d="M226.55,370.67s16.1,18.11-1.08,36.36l-41.56-36.54,16.42-21.57Z"/>
        <path class="cls-3" d="M137.75,339.5s4.08,26-16.09,32c-.09,0-23.88-50.5-23.88-50.5l26.54-11.6Z"/>
        <path class="cls-4" d="M233.06,105.7l-19.13,1.06a21.11,21.11,0,0,1-22.18-19.85l-.91-16.42a20.48,20.48,0,0,1,.44-5.56,18.9,18.9,0,0,1,.57-2.12.49.49,0,0,1,0-.11,21.12,21.12,0,0,1,18.8-14.4l4.4-.24a21.11,21.11,0,0,1,20.44,12.59,18.38,18.38,0,0,1,.69,1.79,20,20,0,0,1,.84,3.47c.1.66.17,1.32.21,2L239,99.07A6.31,6.31,0,0,1,233.06,105.7Z"/>
        <path class="cls-5" d="M260.63,149.75,334.56,33.23a3,3,0,0,0-.7-4c-5.94-4.56-23.22-14.87-34.91,8.14l-58.22,87.17L199,126.88,131.47,46.67c-14.15-21.57-30.18-9.41-35.58-4.22a3,3,0,0,0-.25,4l86.3,107.64h0L186,226.84l78.65-4.37-4-72.71Z"/>
        <path class="cls-2" d="M237.36,69.19c-.75-2-1.76-5.7-8.12-9.13-7-3.76-12.89,8.58-20.89,5.51-9.85-3.79-16.09,0-17.45,6a28.65,28.65,0,0,1-.07-3.43,21,21,0,0,1,20.58-19.89l3.13-.16A21,21,0,0,1,235,59.52,23.16,23.16,0,0,1,237.36,69.19Z"/>
        <path class="cls-6" d="M237.36,69.19c-.75-2-1.76-5.7-8.12-9.13-7-3.76-12.89,8.58-20.89,5.51-9.85-3.79-16.09,0-17.45,6a28.65,28.65,0,0,1-.07-3.43,21,21,0,0,1,20.58-19.89l3.13-.16A21,21,0,0,1,235,59.52,23.16,23.16,0,0,1,237.36,69.19Z"/>
      </g>
    </g>
  </g>
</svg>
