<?xml version="1.0" encoding="utf-8"?>
<!-- Generator: Adobe Illustrator 26.0.3, SVG Export Plug-In . SVG Version: 6.00 Build 0)  -->
<svg version="1.1" id="Warstwa_1" xmlns="http://www.w3.org/2000/svg" xmlns:xlink="http://www.w3.org/1999/xlink" x="0px" y="0px"
	 viewBox="0 0 430 430" style="enable-background:new 0 0 430 430;" xml:space="preserve">
<style type="text/css">
	.st0{fill:#92140C;}
	.st1{fill:#3A3347;}
	.st2{fill:#F28BA8;}
	.st3{opacity:0.5;fill:#F28BA8;}
	.st4{fill:#121331;}
	.st5{fill:#B26836;}
	.st6{fill:#1b1a19;}
	.st7{opacity:0.5;fill:#1b1a19;}
	.st8{fill:#FFC738;}
	.st9{opacity:0.5;fill:#FFC738;}
	.st10{opacity:0.5;fill:#B26836;}
	.st11{opacity:0.5;}
	.st12{fill:#646E78;}
	.st13{opacity:0.5;fill:#646E78;}
	.st14{fill:#F9C9C0;}
	.st15{fill:#2CA58D;}
	.st16{opacity:0.5;fill:#F9C9C0;}
	.st17{opacity:0.5;fill:#2CA58D;}
	.st18{fill:#EBE6EF;}
	.st19{opacity:0.5;fill:#EBE6EF;}
	.st20{opacity:0.5;fill:#92140C;}
	.st21{opacity:0.5;fill:#3A3347;}
	.st22{fill:#1b1a19;}
	.st23{opacity:0.5;fill:#1b1a19;}
	.st24{fill:none;stroke:#121331;stroke-width:7;stroke-linecap:round;stroke-linejoin:round;stroke-miterlimit:10;}
	.st25{fill:none;}
	.st26{fill:none;stroke:#1b1a19;stroke-width:7;stroke-linecap:round;stroke-linejoin:round;stroke-miterlimit:10;}
	.st27{fill:none;stroke:#3A3347;stroke-width:7;stroke-linecap:round;stroke-linejoin:round;stroke-miterlimit:10;}
</style>
<path class="st22" d="M353.4,266.6c-16.8,23.8-49.8,25.4-77,15.2c-2.7-1-5.6-2.3-8.6-3.9c-0.3,14,1.6,29.1,5,37.7
	c6.2,15.6,19.7,29.1,36.4,27c13.3-1.7,22.8-13.8,21.1-27.2c0-0.1,0-0.2,0-0.3c-0.8-5.4,6.1-8.2,9.3-3.8c3.5,4.8,5.9,10.5,6.7,16.5
	c2.9,23.1-13.5,44.2-36.6,47.1c-28.9,3.6-52.3-19.7-63.1-46.8c-0.7-1.8-1.4-3.8-2-5.9c0,0,0,0,0,0v0c-5.2-11-16.5-18.7-29.6-18.7
	c-13,0-24.3,7.6-29.5,18.6c0,0,0,0,0,0v0c-0.6,2.2-1.3,4.2-2.1,6c-10.8,27-34.2,50.4-63.1,46.8c-23.1-2.9-39.5-24-36.6-47.1
	c0.8-6,3.2-11.7,6.7-16.5c3.2-4.4,10.1-1.6,9.3,3.8c0,0.1,0,0.2,0,0.3c-1.7,13.3,7.8,25.5,21.1,27.2c16.7,2.1,30.2-11.4,36.4-27
	c3.4-8.6,5.3-23.7,5-37.7c-3,1.5-5.9,2.9-8.6,3.9c-27.3,10.2-60.3,8.6-77-15.2c-13.4-19-8.8-45.3,10.2-58.8
	c4.9-3.5,10.8-5.5,16.7-6.2c5.4-0.6,7.9,6.4,3.4,9.4c-0.1,0.1-0.2,0.1-0.3,0.2c-11,7.7-13.6,22.9-5.9,33.9
	c9.7,13.8,28.8,14.7,44.5,8.8c3.7-1.4,8.1-3.8,12.7-6.8l-13.2-71.5c-1.5-7.9-3.1-15.7-5.3-23.5c-1.9-6.6-2.9-13.5-2.9-20.6
	c0-42.5,35.1-76.9,78.4-76.9c7,0,13.8,0.9,20.3,2.6c19,5,35.1,16.8,45.6,32.6c0,0,0,0,0,0c7.9,12,12.5,26.3,12.5,41.7
	c0,2.3-0.1,4.5-0.3,6.8c-0.4,4.8-1.3,9.4-2.6,13.9c-1,3.4-1.8,6.9-2.6,10.4c-1,4.3-1.9,8.7-2.7,13.1L272,247.2c4.6,3,9,5.4,12.7,6.8
	c15.7,5.9,34.8,5,44.5-8.8c7.7-11,5.1-26.2-5.9-33.9c-0.1-0.1-0.2-0.1-0.3-0.2c-4.5-3-2-10,3.4-9.4c5.9,0.7,11.8,2.7,16.7,6.2
	C362.2,221.2,366.8,247.5,353.4,266.6z"/>
<path class="st23" d="M162.2,277.9c-3,1.5-5.9,2.9-8.6,3.9c-27.3,10.2-60.3,8.6-77-15.2c-13.4-19-8.8-45.3,10.2-58.8
	c4.9-3.5,10.8-5.5,16.7-6.2c5.4-0.6,7.9,6.4,3.4,9.4c-0.1,0.1-0.2,0.1-0.3,0.2c-11,7.7-13.6,22.9-5.9,33.9
	c9.7,13.8,28.8,14.7,44.5,8.8c3.7-1.4,8.1-3.8,12.7-6.8l2.8,15.1C161.6,267,162.1,272.4,162.2,277.9z"/>
<path class="st23" d="M353.4,266.6c-16.8,23.8-49.8,25.4-77,15.2c-2.7-1-5.6-2.3-8.6-3.9c0.1-5.5,0.6-10.9,1.5-15.7l2.8-15.1
	c4.6,3,9,5.4,12.7,6.8c15.7,5.9,34.8,5,44.5-8.8c7.7-11,5.1-26.2-5.9-33.9c-0.1-0.1-0.2-0.1-0.3-0.2c-4.5-3-2-10,3.4-9.4
	c5.9,0.7,11.8,2.7,16.7,6.2C362.2,221.2,366.8,247.5,353.4,266.6z"/>
<path class="st6" d="M203.6,112.1c0,9-7.3,16.2-16.2,16.2c-9,0-16.2-7.3-16.2-16.2c0-9,7.3-16.2,16.2-16.2
	C196.3,95.8,203.6,103.1,203.6,112.1z"/>
<path class="st6" d="M280.9,90c-4.1,11-14.7,18.9-27.2,18.9c-16,0-29-13-29-29c0-9,4.1-17.1,10.6-22.4
	C254.3,62.4,270.5,74.2,280.9,90z"/>
<path class="st6" d="M293.1,138.5c-0.4,4.8-1.3,9.4-2.6,13.9c-1,3.4-1.8,6.9-2.6,10.4c-3,2.2-6.8,3.5-10.8,3.5
	c-10.2,0-18.5-8.3-18.5-18.5s8.3-18.5,18.5-18.5C284,129.3,289.9,133,293.1,138.5L293.1,138.5z"/>
<path class="st7" d="M190.5,128.2c-1,0.2-2.1,0.3-3.1,0.3c-9,0-16.2-7.3-16.2-16.2c0-9,7.3-16.2,16.2-16.2c1.1,0,2.1,0.1,3.1,0.3
	c-7.5,1.5-13.1,8-13.1,15.9C177.4,120.2,183,126.8,190.5,128.2z"/>
<path class="st7" d="M256.8,109c-1,0.1-2.1,0.2-3.1,0.2c-16,0-29-13-29-29c0-9,4.1-17.1,10.6-22.4c1.6,0.4,3.2,0.9,4.7,1.4
	c-5.6,5.3-9.1,12.7-9.1,21C231,95.1,242.3,107.4,256.8,109z"/>
<path class="st7" d="M280.3,166.2c-1,0.2-2.1,0.3-3.1,0.3c-10.2,0-18.5-8.3-18.5-18.5s8.3-18.5,18.5-18.5c1.1,0,2.1,0.1,3.2,0.3
	c-8.7,1.5-15.4,9.1-15.4,18.2C264.9,157.1,271.6,164.7,280.3,166.2z"/>
<path class="st4" d="M235.6,213.5c-1.6,0-3.1-0.6-4.2-1.8c-1.1-1.1-1.8-2.7-1.8-4.2c0-0.4,0-0.8,0.1-1.2c0.1-0.4,0.2-0.8,0.3-1.1
	c0.1-0.4,0.3-0.7,0.5-1c0.2-0.3,0.5-0.6,0.8-0.9c0.3-0.3,0.6-0.5,0.9-0.8c0.3-0.2,0.7-0.4,1-0.5s0.7-0.3,1.1-0.3
	c0.8-0.2,1.6-0.2,2.4,0c0.4,0.1,0.8,0.2,1.1,0.3c0.4,0.1,0.7,0.3,1,0.5c0.3,0.2,0.6,0.5,0.9,0.8c0.3,0.3,0.5,0.6,0.7,0.9
	c0.2,0.3,0.4,0.7,0.6,1c0.1,0.4,0.3,0.7,0.4,1.1c0.1,0.4,0.1,0.8,0.1,1.2c0,1.6-0.6,3.1-1.8,4.2c-0.3,0.3-0.6,0.5-0.9,0.8
	c-0.3,0.2-0.7,0.4-1,0.6c-0.4,0.1-0.7,0.3-1.1,0.3C236.4,213.4,236,213.5,235.6,213.5z"/>
<path class="st4" d="M194.4,213.5c-0.4,0-0.8,0-1.2-0.1c-0.4-0.1-0.8-0.2-1.1-0.3c-0.4-0.1-0.7-0.3-1-0.6c-0.3-0.2-0.6-0.5-0.9-0.8
	c-0.3-0.3-0.5-0.6-0.7-0.9c-0.2-0.3-0.4-0.7-0.5-1c-0.1-0.4-0.3-0.7-0.4-1.1c-0.1-0.4-0.1-0.8-0.1-1.2c0-1.6,0.6-3.1,1.8-4.2
	c0.3-0.3,0.6-0.5,0.9-0.8c0.3-0.2,0.7-0.4,1-0.5c0.4-0.1,0.7-0.3,1.1-0.3c0.8-0.2,1.6-0.2,2.4,0c0.4,0.1,0.8,0.2,1.1,0.3
	s0.7,0.3,1,0.5c0.3,0.2,0.6,0.5,0.9,0.8c1.1,1.1,1.8,2.7,1.8,4.2c0,0.4,0,0.8-0.1,1.2s-0.2,0.8-0.3,1.1c-0.1,0.4-0.3,0.7-0.6,1
	c-0.2,0.3-0.5,0.6-0.7,0.9c-0.3,0.3-0.6,0.5-0.9,0.8c-0.3,0.2-0.7,0.4-1,0.6s-0.7,0.3-1.1,0.3C195.1,213.4,194.8,213.5,194.4,213.5z
	"/>
</svg>
