<?xml version="1.0" encoding="utf-8"?>
<!-- Generator: Adobe Illustrator 26.2.1, SVG Export Plug-In . SVG Version: 6.00 Build 0)  -->
<svg version="1.1" id="Warstwa_1" xmlns="http://www.w3.org/2000/svg" xmlns:xlink="http://www.w3.org/1999/xlink" x="0px" y="0px"
	 viewBox="0 0 430 430" style="enable-background:new 0 0 430 430;" xml:space="preserve">
<style type="text/css">
	.st0{fill:#2CA58D;}
	.st1{opacity:0.5;fill:#2CA58D;}
	.st2{fill:#4BB3FD;}
	.st3{opacity:0.5;fill:#4BB3FD;}
	.st4{fill:#1b1a19;}
	.st5{fill:#1b1a19;}
	.st6{opacity:0.5;fill:#1b1a19;}
	.st7{fill:#646E78;}
	.st8{opacity:0.5;fill:#646E78;}
	.st9{opacity:0.5;fill:#1b1a19;}
	.st10{opacity:0.5;}
	.st11{fill:#121331;}
	.st12{fill:#FFFFFF;}
	.st13{fill:#3A3347;}
	.st14{fill:none;}
	.st15{opacity:0.5;fill:#F9C9C0;}
	.st16{fill:#B26836;}
	.st17{opacity:0.5;fill:#B26836;}
	.st18{fill:#F28BA8;}
	.st19{opacity:0.5;fill:#F28BA8;}
	.st20{fill:#F24C00;}
	.st21{opacity:0.5;fill:#F24C00;}
	.st22{fill:#92140C;}
	.st23{opacity:0.5;fill:#3A3347;}
	.st24{opacity:0.5;fill:#92140C;}
	.st25{fill:none;stroke:#121331;stroke-width:7;stroke-linecap:round;stroke-linejoin:round;stroke-miterlimit:10;}
	.st26{fill:#F9C9C0;}
</style>
<path class="st5" d="M253.6,363.9c-14.5,4.7-30.1,7.2-46.2,7c-32.2-0.2-61.9-10.8-86.1-28.6c-7.1-5.2-13.8-11.1-19.8-17.5
	c-25.6-27-41.2-63.7-40.5-103.6c0.2-12.9,2-25.3,5.3-37.2v0c2-7.2,4.5-14.1,7.5-20.8c0,0,0,0,0,0c20.7-46.2,64.6-79.8,116.8-86
	c5.2-0.6,10.4-1,15.8-1.1c0.7,0,1.4,0,2.1,0c15.8,0,31,2.5,45.2,7.1c2.6,0.8,2.8,4.5,0.3,5.6c-45.2,20.1-78.5,62.3-86,112.9
	c-1.1,7.2-1.6,14.5-1.6,21.9c0,22,4.8,42.8,13.4,61.6c15,32.5,41.4,58.7,74.2,73.2C256.4,359.4,256.2,363.1,253.6,363.9z"/>
<path class="st4" d="M309.7,193l-24.9,11.3c-0.6,0.3-1.2,0.8-1.5,1.4l-10,20.6L271,231c-1.1,2.2-4.3,2.2-5.4,0l-12.3-25.3
	c0-0.1-0.1-0.2-0.1-0.2c-0.3-0.4-0.6-0.8-1.1-1l0,0c-0.1,0-0.1-0.1-0.2-0.1L227,193c-2.3-1-2.3-4.2-0.2-5.4c0.1-0.1,0.1-0.1,0.2-0.1
	l24.9-11.3c0.6-0.3,1.2-0.8,1.5-1.4l12.3-25.3c1.1-2.3,4.3-2.3,5.4,0l12.3,25.3c0.3,0.6,0.8,1.1,1.5,1.4l24.9,11.3
	C312,188.6,312,191.9,309.7,193z"/>
<path class="st4" d="M348.4,313.1l-15.7,7.1c-0.6,0.3-1.2,0.8-1.5,1.4l-5.5,11.4v0l-2.3,4.7c-1.1,2.2-4.3,2.2-5.4,0l-7.8-16.1
	c0,0,0-0.1,0-0.1c-0.3-0.5-0.7-1-1.2-1.2c-0.1,0-0.1-0.1-0.2-0.1l-15.7-7.1c-2.3-1-2.3-4.2-0.2-5.4c0.1,0,0.1-0.1,0.2-0.1l15.7-7.1
	c0.6-0.3,1.2-0.8,1.5-1.4l7.8-16.1c1.1-2.2,4.3-2.2,5.4,0l7.8,16.1c0.3,0.6,0.8,1.1,1.5,1.4l15.7,7.1
	C350.8,308.7,350.8,312,348.4,313.1z"/>
<path class="st4" d="M388.1,86.2l-15.7,7.1c-0.6,0.3-1.2,0.8-1.5,1.4l-5.5,11.4l-2.3,4.7c-1.1,2.3-4.3,2.3-5.4,0l-7.8-16.1
	c0-0.1-0.1-0.1-0.1-0.2c-0.3-0.5-0.7-0.9-1.2-1.1c-0.1-0.1-0.1-0.1-0.2-0.1l-15.7-7.1c-2.3-1-2.3-4.2-0.2-5.4c0.1,0,0.1-0.1,0.2-0.1
	l15.7-7.1c0.6-0.3,1.1-0.8,1.5-1.4l7.8-16.1c1.1-2.3,4.3-2.3,5.4,0l7.8,16.1c0.3,0.6,0.8,1.1,1.5,1.4l15.7,7.1
	C390.5,81.8,390.5,85.2,388.1,86.2z"/>
<path class="st9" d="M273.3,226.3L271,231c-1.1,2.2-4.3,2.2-5.4,0l-12.4-25.6l-0.3-0.7l-0.7-0.3l0,0c-0.1,0-0.1-0.1-0.2-0.1L227,193
	c-2.3-1-2.3-4.2-0.2-5.4l4.9-2.2l26.9,12.2c0.6,0.3,1.2,0.8,1.5,1.4L273.3,226.3z"/>
<path class="st9" d="M325.8,333L325.8,333l-2.3,4.7c-1.1,2.2-4.3,2.2-5.4,0l-7.8-16.1c0,0,0-0.1,0-0.1l-0.4-0.9l-0.8-0.4
	c-0.1,0-0.1-0.1-0.2-0.1l-15.7-7.1c-2.3-1-2.3-4.2-0.2-5.4l4.9-2.2l17.7,8.1c0.6,0.3,1.2,0.8,1.5,1.4L325.8,333z"/>
<path class="st9" d="M365.4,106.2l-2.3,4.7c-1.1,2.3-4.3,2.3-5.4,0l-7.8-16.1c0-0.1-0.1-0.1-0.1-0.2l-0.4-0.8l-0.8-0.3
	c-0.1-0.1-0.1-0.1-0.2-0.1l-15.7-7.1c-2.3-1-2.3-4.2-0.2-5.4l4.9-2.2l17.7,8.1c0.6,0.3,1.2,0.8,1.5,1.4L365.4,106.2z"/>
<path class="st6" d="M179.7,285.1c-2.2,0.4-4.5,0.6-6.9,0.6c-23.3,0-42.2-18.9-42.2-42.2c0-21.6,16.3-39.5,37.2-41.9
	c-1.1,7.2-1.6,14.5-1.6,21.9C166.2,245.5,171.1,266.3,179.7,285.1z"/>
<path class="st6" d="M137.4,324.4c0,9.3-7.1,17-16.1,17.9c-7.1-5.2-13.8-11.1-19.8-17.5c0-0.1,0-0.2,0-0.4c0-9.9,8-18,18-18
	C129.3,306.4,137.4,314.5,137.4,324.4z"/>
<path class="st6" d="M73.8,163.1C73.8,163.1,73.8,163.1,73.8,163.1c4.2-3.9,9.9-6.2,16-6.2c13.1,0,23.8,10.6,23.8,23.8
	c0,13.1-10.7,23.8-23.8,23.8c-12,0-21.9-8.9-23.5-20.5c0,0,0,0,0,0L73.8,163.1z"/>
<circle class="st6" cx="184.2" cy="339.4" r="4.8"/>
<circle class="st6" cx="146.5" cy="156.9" r="4.8"/>
<circle class="st6" cx="165.8" cy="116.5" r="4.8"/>
<circle class="st6" cx="206.8" cy="358.4" r="8.2"/>
<path class="st6" d="M206.8,78.6c0,4.5-3.7,8.2-8.2,8.2s-8.2-3.7-8.2-8.2c0-0.5,0-1.1,0.2-1.6c5.2-0.6,10.4-1,15.8-1.1
	C206.6,76.8,206.8,77.7,206.8,78.6z"/>
<circle class="st6" cx="98" cy="243.4" r="8.2"/>
</svg>
