<?xml version="1.0" encoding="utf-8"?>
<!-- Generator: Adobe Illustrator 26.3.1, SVG Export Plug-In . SVG Version: 6.00 Build 0)  -->
<svg version="1.1" id="Warstwa_1" xmlns="http://www.w3.org/2000/svg" xmlns:xlink="http://www.w3.org/1999/xlink" x="0px" y="0px"
	 viewBox="0 0 430 430" style="enable-background:new 0 0 430 430;" xml:space="preserve">
<style type="text/css">
	.st0{fill:#1B1A19;}
	.st1{opacity:0.5;fill:#1B1A19;enable-background:new    ;}
</style>
<path class="st0" d="M375.1,271.4v74c0,1.7-1.3,3-3,3H134.9v-80h182v-23.8c0-1.7,1.3-3,3-3h29c1.7,0,3,1.3,3,3v23.8h20.2
	C373.8,268.4,375.1,269.8,375.1,271.4z"/>
<path class="st0" d="M295.1,188.4v80H134.9v-77c0-1.7,1.3-3,3-3h18.9v-23.8c0-1.7,1.3-3,3-3h29c1.7,0,3,1.3,3,3v23.8H295.1z"/>
<path class="st0" d="M295.1,111.4v77H215v-77c0-1.7,1.3-3,3-3h20.2V84.6c0-1.7,1.3-3,3-3h29c1.7,0,3,1.3,3,3v23.8h18.9
	C293.7,108.4,295.1,109.7,295.1,111.4z"/>
<path class="st0" d="M134.9,268.4v80h-77c-1.7,0-3-1.3-3-3v-74c0-1.7,1.3-3,3-3h20.2v-23.8c0-1.7,1.3-3,3-3h29c1.7,0,3,1.3,3,3v23.8
	H134.9z"/>
<path class="st1" d="M69.8,268.4v80H57.9c-1.7,0-3-1.3-3-3v-74c0-1.7,1.3-3,3-3H69.8z"/>
<path class="st1" d="M229.9,108.4v80H215v-77c0-1.7,1.3-3,3-3C218,108.4,229.9,108.4,229.9,108.4z"/>
<path class="st1" d="M149.8,188.4v80h-14.9v-77c0-1.7,1.3-3,3-3H149.8z"/>
<rect x="134.9" y="268.4" class="st1" width="14.9" height="80"/>
<path class="st1" d="M351.9,244.6v23.8h-35v-23.8c0-1.7,1.3-3,3-3h29C350.6,241.6,351.9,242.9,351.9,244.6z"/>
<path class="st1" d="M191.8,164.6v23.8h-35v-23.8c0-1.7,1.3-3,3-3h29C190.5,161.6,191.8,162.9,191.8,164.6z"/>
<path class="st1" d="M273.2,84.6v23.8h-35V84.6c0-1.7,1.3-3,3-3h29C271.8,81.6,273.2,82.9,273.2,84.6z"/>
<path class="st1" d="M113.1,244.6v23.8h-35v-23.8c0-1.7,1.3-3,3-3h29C111.7,241.6,113.1,242.9,113.1,244.6z"/>
</svg>
