<?xml version="1.0" encoding="utf-8"?>
<!-- Generator: Adobe Illustrator 26.0.3, SVG Export Plug-In . SVG Version: 6.00 Build 0)  -->
<svg version="1.1" id="Warstwa_1" xmlns="http://www.w3.org/2000/svg" xmlns:xlink="http://www.w3.org/1999/xlink" x="0px" y="0px"
	 viewBox="0 0 430 430" style="enable-background:new 0 0 430 430;" xml:space="preserve">
<style type="text/css">
	.st0{fill:#EBE6EF;}
	.st1{opacity:0.5;fill:#EBE6EF;}
	.st2{fill:#92140C;}
	.st3{fill:#1b1a19;}
	.st4{fill:#F28BA8;}
	.st5{opacity:0.5;fill:#F28BA8;}
	.st6{fill:none;stroke:#090B2E;stroke-width:7;stroke-linecap:round;stroke-linejoin:round;stroke-miterlimit:10;}
	.st7{fill:#B26836;}
	.st8{fill:#4BB3FD;}
	.st9{opacity:0.5;fill:#4BB3FD;}
	.st10{fill:#FFC738;}
	.st11{opacity:0.5;fill:#FFC738;}
	.st12{opacity:0.5;fill:#B26836;}
	.st13{fill:none;stroke:#2CA58D;stroke-width:7;stroke-linecap:round;stroke-linejoin:round;stroke-miterlimit:10;}
	.st14{fill:none;stroke:#1b1a19;stroke-width:7;stroke-linecap:round;stroke-linejoin:round;stroke-miterlimit:10;}
	.st15{opacity:0.5;}
	.st16{fill:#646E78;}
	.st17{opacity:0.5;fill:#646E78;}
	.st18{fill:#1b1a19;}
	.st19{fill:#2CA58D;}
	.st20{opacity:0.5;fill:#1b1a19;}
	.st21{opacity:0.5;fill:#2CA58D;}
	.st22{fill:none;stroke:#646E78;stroke-width:7;stroke-linecap:round;stroke-linejoin:round;stroke-miterlimit:10;}
	.st23{fill:none;stroke:#4BB3FD;stroke-width:7;stroke-linecap:round;stroke-linejoin:round;stroke-miterlimit:10;}
	.st24{fill:none;stroke:#F28BA8;stroke-width:7;stroke-linecap:round;stroke-linejoin:round;stroke-miterlimit:10;}
	.st25{opacity:0.5;fill:#92140C;}
	.st26{fill:none;stroke:#EBE6EF;stroke-width:7;stroke-linecap:round;stroke-linejoin:round;stroke-miterlimit:10;}
	.st27{fill:none;stroke:#4BB3FD;stroke-width:42;stroke-linecap:round;stroke-linejoin:round;stroke-miterlimit:10;}
	.st28{fill:none;stroke:#4BB3FD;stroke-width:35;stroke-linecap:round;stroke-linejoin:round;stroke-miterlimit:10;}
	.st29{fill:none;stroke:#4BB3FD;stroke-width:29;stroke-linecap:round;stroke-linejoin:round;stroke-miterlimit:10;}
	.st30{fill:none;stroke:#4BB3FD;stroke-width:26;stroke-linecap:round;stroke-linejoin:round;stroke-miterlimit:10;}
	.st31{fill:none;stroke:#4BB3FD;stroke-width:22;stroke-linecap:round;stroke-linejoin:round;stroke-miterlimit:10;}
	.st32{fill:none;stroke:#4BB3FD;stroke-width:19;stroke-linecap:round;stroke-linejoin:round;stroke-miterlimit:10;}
	.st33{fill:none;stroke:#4BB3FD;stroke-width:16;stroke-linecap:round;stroke-linejoin:round;stroke-miterlimit:10;}
	.st34{fill:none;stroke:#4BB3FD;stroke-width:14;stroke-linecap:round;stroke-linejoin:round;stroke-miterlimit:10;}
	.st35{fill:none;stroke:#090B2E;stroke-width:35;stroke-linecap:round;stroke-linejoin:round;stroke-miterlimit:10;}
	.st36{fill:none;stroke:#090B2E;stroke-width:29;stroke-linecap:round;stroke-linejoin:round;stroke-miterlimit:10;}
	.st37{fill:none;stroke:#090B2E;stroke-width:26;stroke-linecap:round;stroke-linejoin:round;stroke-miterlimit:10;}
	.st38{fill:none;stroke:#090B2E;stroke-width:22;stroke-linecap:round;stroke-linejoin:round;stroke-miterlimit:10;}
	.st39{fill:none;stroke:#090B2E;stroke-width:19;stroke-linecap:round;stroke-linejoin:round;stroke-miterlimit:10;}
	.st40{fill:none;stroke:#090B2E;stroke-width:16;stroke-linecap:round;stroke-linejoin:round;stroke-miterlimit:10;}
	.st41{fill:none;stroke:#090B2E;stroke-width:14;stroke-linecap:round;stroke-linejoin:round;stroke-miterlimit:10;}
	.st42{fill:none;stroke:#2CA58D;stroke-width:42;stroke-linecap:round;stroke-linejoin:round;stroke-miterlimit:10;}
	.st43{opacity:0.5;fill:#1b1a19;}
	.st44{fill:none;stroke:#646E78;stroke-width:7;stroke-linecap:round;stroke-linejoin:round;stroke-miterlimit:14.8;}
	.st45{fill:none;stroke:#090B2E;stroke-width:7;stroke-linecap:round;stroke-linejoin:round;stroke-miterlimit:14.8;}
	.st46{fill:none;stroke:#2CA58D;stroke-width:7;stroke-linecap:round;stroke-linejoin:round;stroke-miterlimit:4;}
	.st47{fill:#1b1a19;}
	.st48{opacity:0.5;fill:#1b1a19;}
	.st49{fill:none;stroke:#92140C;stroke-width:7;stroke-linecap:round;stroke-linejoin:round;stroke-miterlimit:10;}
	.st50{opacity:0.5;fill:none;stroke:#FFC738;stroke-width:7;stroke-linecap:round;stroke-linejoin:round;stroke-miterlimit:10;}
	.st51{opacity:0.5;fill:none;stroke:#B26836;stroke-width:7;stroke-linecap:round;stroke-linejoin:round;stroke-miterlimit:10;}
	.st52{fill:none;stroke:#1b1a19;stroke-width:14;stroke-linecap:round;stroke-linejoin:round;stroke-miterlimit:10;}
	.st53{fill:none;}
	.st54{fill:none;stroke:#1b1a19;stroke-width:12;stroke-linecap:round;stroke-linejoin:round;stroke-miterlimit:10;}
	.st55{fill:none;stroke:#090B2E;stroke-width:12;stroke-linecap:round;stroke-linejoin:round;stroke-miterlimit:10;}
	.st56{fill:none;stroke:#1b1a19;stroke-width:7;stroke-linecap:round;stroke-linejoin:round;stroke-miterlimit:10;}
	.st57{fill:none;stroke:#1b1a19;stroke-width:8;stroke-linecap:round;stroke-linejoin:round;stroke-miterlimit:10;}
	.st58{fill:none;stroke:#090B2E;stroke-width:8;stroke-linecap:round;stroke-linejoin:round;stroke-miterlimit:10;}
	.st59{fill:none;stroke:#2CA58D;stroke-width:8;stroke-linecap:round;stroke-linejoin:round;stroke-miterlimit:10;}
	.st60{fill:none;stroke:#2CA58D;stroke-width:12;stroke-linecap:round;stroke-linejoin:round;stroke-miterlimit:10;}
	.st61{fill:none;stroke:#92140C;stroke-width:12;stroke-linecap:round;stroke-linejoin:round;stroke-miterlimit:10;}
	.st62{fill:none;stroke:#FFC738;stroke-width:12;stroke-linecap:round;stroke-linejoin:round;stroke-miterlimit:10;}
	.st63{fill:none;stroke:#B26836;stroke-width:7;stroke-linecap:round;stroke-linejoin:round;stroke-miterlimit:10;}
	.st64{opacity:0.5;fill:none;stroke:#2CA58D;stroke-width:7;stroke-linecap:round;stroke-linejoin:round;stroke-miterlimit:10;}
	.st65{fill:none;stroke:#1b1a19;stroke-width:18;stroke-linecap:round;stroke-linejoin:round;stroke-miterlimit:10;}
	.st66{fill:none;stroke:#090B2E;stroke-width:18;stroke-linecap:round;stroke-linejoin:round;stroke-miterlimit:10;}
	.st67{fill:none;stroke:#EBE6EF;stroke-width:12;stroke-linecap:round;stroke-linejoin:round;stroke-miterlimit:10;}
	.st68{fill:none;stroke:#EBE6EF;stroke-width:14;stroke-linecap:round;stroke-linejoin:round;stroke-miterlimit:10;}
	.st69{fill:none;stroke:#1b1a19;stroke-width:12;stroke-linecap:round;stroke-linejoin:round;stroke-miterlimit:10;}
	.st70{opacity:0.5;fill:none;stroke:#1b1a19;stroke-width:12;stroke-linecap:round;stroke-linejoin:round;stroke-miterlimit:10;}
	.st71{fill:none;stroke:#FFC738;stroke-width:12;stroke-linecap:round;stroke-linejoin:round;}
	.st72{fill:none;stroke:#FFC738;stroke-width:12;stroke-linecap:round;stroke-linejoin:round;stroke-dasharray:0.5282,31.6897;}
	.st73{fill:none;stroke:#FFC738;stroke-width:12;stroke-linecap:round;stroke-linejoin:round;stroke-dasharray:0.5438,32.6265;}
	.st74{fill:none;stroke:#FFC738;stroke-width:12;stroke-linecap:round;stroke-linejoin:round;stroke-dasharray:0.5386,32.3169;}
	
		.st75{fill:none;stroke:#FFC738;stroke-width:12;stroke-linecap:round;stroke-linejoin:round;stroke-miterlimit:10;stroke-dasharray:0.5,30;}
	.st76{fill:none;stroke:#2CA58D;stroke-width:12;stroke-linecap:round;stroke-linejoin:round;}
	.st77{fill:none;stroke:#2CA58D;stroke-width:12;stroke-linecap:round;stroke-linejoin:round;stroke-dasharray:0.5282,31.6897;}
	.st78{fill:none;stroke:#2CA58D;stroke-width:12;stroke-linecap:round;stroke-linejoin:round;stroke-dasharray:0.5438,32.6265;}
	.st79{fill:none;stroke:#2CA58D;stroke-width:12;stroke-linecap:round;stroke-linejoin:round;stroke-dasharray:0.5386,32.3169;}
	
		.st80{fill:none;stroke:#2CA58D;stroke-width:12;stroke-linecap:round;stroke-linejoin:round;stroke-miterlimit:10;stroke-dasharray:0.5,30;}
	.st81{fill:none;stroke:#1b1a19;stroke-width:16;stroke-linecap:round;stroke-linejoin:round;stroke-miterlimit:10;}
	.st82{opacity:0.5;fill:none;stroke:#4BB3FD;stroke-width:7;stroke-linecap:round;stroke-linejoin:round;stroke-miterlimit:10;}
	.st83{fill:none;stroke:#646E78;stroke-width:18;stroke-linecap:round;stroke-linejoin:round;stroke-miterlimit:10;}
	.st84{fill:none;stroke:#2CA58D;stroke-width:18;stroke-linecap:round;stroke-linejoin:round;stroke-miterlimit:10;}
	.st85{fill:none;stroke:#1b1a19;stroke-width:10;stroke-linecap:round;stroke-linejoin:round;stroke-miterlimit:10;}
	.st86{opacity:0.5;fill:none;stroke:#EBE6EF;stroke-width:7;stroke-linecap:round;stroke-linejoin:round;stroke-miterlimit:10;}
	.st87{fill:none;stroke:#090B2E;stroke-width:10;stroke-linecap:round;stroke-linejoin:round;stroke-miterlimit:10;}
	.st88{opacity:0.5;fill:none;stroke:#646E78;stroke-width:7;stroke-linecap:round;stroke-linejoin:round;stroke-miterlimit:10;}
	.st89{fill:none;stroke:#2CA58D;stroke-width:14;stroke-linecap:round;stroke-linejoin:round;stroke-miterlimit:10;}
	.st90{fill:none;stroke:#FFC738;stroke-width:7;stroke-linecap:round;stroke-linejoin:round;stroke-miterlimit:10;}
	.st91{fill:#090B2E;}
</style>
<path class="st18" d="M394.41,202.42c0,1.18-0.14,2.37-0.43,3.56l-20.42,83.33c-0.17,0.7-0.58,1.31-1.17,1.73l-58.29,41.73
	c-0.58,0.42-1,1.03-1.17,1.73l-4.89,19.96l10.61,2.6c1.61,0.39,2.59,2.02,2.2,3.63l-9.22,37.65c-0.39,1.61-2.02,2.59-3.63,2.2
	l-61.22-14.99c-1.17-0.29-2.05-1.24-2.25-2.43l-6.83-41.59c-0.35-2.12,1.58-3.91,3.67-3.4l14.13,3.46l12.08-49.29
	c0.17-0.71,0.6-1.33,1.2-1.75l51.38-35.68c0.42-0.32,1.15-0.62,2.1-0.86l10.96-44.77c1.86-7.62,9.55-12.29,17.17-10.42
	c6.49,1.59,10.83,7.4,10.83,13.8c0,1.1-0.13,2.23-0.4,3.35l4.18-17.07c1.96-8,10.03-12.9,18.03-10.94
	C389.85,189.61,394.41,195.71,394.41,202.42z"/>
<path class="st20" d="M392.06,194.49c-0.07-0.03-0.15-0.05-0.23-0.06c-7.96-1.96-15.99,2.91-17.94,10.86l-0.86,3.2l-16.29,66.36
	c-0.39,1.61-1.37,3.02-2.73,3.96l-35.87,25.53c-3.15,2.17-7.48,0.3-8.06-3.48v0c-0.3-1.97,0.55-3.93,2.18-5.06l35.04-24.96
	l17.98-72.98h0.02c0.63-2.78,5.88-12.46,17.7-9.94C386.95,188.76,390.09,191.32,392.06,194.49z"/>
<g class="st15">
	<path class="st18" d="M328.49,259.78c3.32-2.18,7.01-3.6,10.8-4.26c-8.21-3.34-15.26-2.45-18.71-0.82l-51.68,35.74
		c-0.63,0.42-1.09,1.06-1.27,1.8l-12.76,52.1l13.15,3.22l12.98-53.03c0.18-0.74,0.63-1.38,1.27-1.8L328.49,259.78z"/>
</g>
<g>
	<line class="st18" x1="118.33" y1="296.18" x2="82.67" y2="271.02"/>
</g>
<path class="st18" d="M192.3,341.51l-6.83,41.59c-0.19,1.19-1.08,2.14-2.25,2.43L122,400.53c-1.61,0.39-3.23-0.59-3.63-2.2
	l-9.23-37.65c-0.39-1.61,0.59-3.23,2.2-3.63l10.61-2.6l-4.89-19.96c-0.17-0.7-0.58-1.31-1.17-1.73l-58.28-41.73
	c-0.58-0.42-1-1.03-1.17-1.73l-20.43-83.33c-0.29-1.19-0.43-2.38-0.43-3.56c0-6.71,4.56-12.81,11.37-14.48
	c8-1.96,16.08,2.94,18.04,10.94l4.19,17.1c-0.28-1.14-0.41-2.28-0.41-3.4c0-6.39,4.34-12.19,10.82-13.78
	c7.62-1.87,15.31,2.8,17.18,10.42l10.96,44.77c0.95,0.24,1.68,0.54,2.1,0.86l51.38,35.68c0.6,0.42,1.03,1.04,1.2,1.75l12.08,49.29
	l14.13-3.46C190.72,337.6,192.65,339.39,192.3,341.51z"/>
<g class="st15">
	<path class="st18" d="M101.5,259.78c-3.32-2.18-7.01-3.6-10.8-4.26c8.21-3.34,15.26-2.45,18.71-0.82l51.68,35.74
		c0.63,0.42,1.09,1.06,1.27,1.8l12.76,52.1l-13.15,3.22l-12.98-53.03c-0.18-0.74-0.63-1.38-1.27-1.8L101.5,259.78z"/>
</g>
<line class="st18" x1="82.51" y1="270.34" x2="69.19" y2="215.98"/>
<circle class="st47" cx="213.97" cy="60.04" r="31.28"/>
<circle class="st47" cx="267.38" cy="186.17" r="31.28"/>
<circle class="st47" cx="135.63" cy="137.5" r="31.28"/>
<path class="st48" d="M220.21,90.69c-2.01,0.42-4.1,0.63-6.23,0.63c-17.28,0-31.28-14.01-31.28-31.28c0-17.28,14-31.28,31.28-31.28
	c2.13,0,4.22,0.21,6.23,0.63c-14.29,2.88-25.04,15.51-25.04,30.65C195.17,75.18,205.92,87.81,220.21,90.69z"/>
<path class="st48" d="M273.62,216.82c-2.02,0.42-4.1,0.63-6.24,0.63c-17.27,0-31.28-14.01-31.28-31.28
	c0-17.28,14.01-31.28,31.28-31.28c2.14,0,4.22,0.21,6.24,0.63c-14.28,2.87-25.05,15.5-25.05,30.65
	C248.57,201.31,259.34,213.94,273.62,216.82z"/>
<path class="st48" d="M141.87,168.15c-2.02,0.42-4.1,0.63-6.24,0.63c-17.27,0-31.28-14-31.28-31.28c0-17.27,14.01-31.28,31.28-31.28
	c2.14,0,4.22,0.21,6.24,0.63c-14.29,2.88-25.05,15.51-25.05,30.65S127.58,165.27,141.87,168.15z"/>
<path class="st3" d="M320.86,360.68l-9.22,37.65c-0.39,1.61-2.02,2.59-3.63,2.2l-61.23-14.99c-1.17-0.29-2.05-1.24-2.25-2.43
	l-6.83-41.59c-0.35-2.12,1.59-3.91,3.67-3.4l14.14,3.47l52.54,12.87l10.61,2.6C320.27,357.44,321.25,359.07,320.86,360.68z"/>
<path class="st3" d="M192.31,341.51l-6.84,41.59c-0.2,1.19-1.08,2.14-2.25,2.43L122,400.53c-1.61,0.39-3.23-0.59-3.63-2.2
	l-9.22-37.65c-0.39-1.61,0.59-3.23,2.2-3.63l10.61-2.6l52.54-12.87l14.14-3.47C190.72,337.6,192.65,339.39,192.31,341.51z"/>
<path class="st43" d="M257.91,388.21l-10.93-2.68c-1.17-0.29-2.05-1.24-2.25-2.43l-6.83-41.59c-0.35-2.12,1.58-3.91,3.67-3.4
	l9.38,2.3L257.91,388.21z"/>
<path class="st43" d="M131.9,398.15l-9.71,2.38c-1.61,0.39-3.23-0.59-3.63-2.2l-9.22-37.65c-0.39-1.61,0.59-3.23,2.2-3.63l10.61-2.6
	l0.17-0.04L131.9,398.15z"/>
<path class="st20" d="M37.93,194.49c0.07-0.03,0.15-0.05,0.23-0.06c7.96-1.96,15.99,2.91,17.94,10.86l0.86,3.2l16.29,66.36
	c0.39,1.61,1.37,3.02,2.73,3.96l35.87,25.53c3.15,2.17,7.48,0.3,8.06-3.48v0c0.3-1.97-0.55-3.93-2.18-5.06l-35.04-24.96L64.7,197.85
	h-0.02c-0.63-2.78-5.88-12.46-17.7-9.94C43.04,188.76,39.9,191.32,37.93,194.49z"/>
</svg>
