<?xml version="1.0" encoding="utf-8"?>
<!-- Generator: Adobe Illustrator 26.2.1, SVG Export Plug-In . SVG Version: 6.00 Build 0)  -->
<svg version="1.1" id="Warstwa_1" xmlns="http://www.w3.org/2000/svg" xmlns:xlink="http://www.w3.org/1999/xlink" x="0px" y="0px"
	 viewBox="0 0 430 430" style="enable-background:new 0 0 430 430;" xml:space="preserve">
<style type="text/css">
	.st0{fill:#1b1a19;}
	.st1{opacity:0.5;fill:#1b1a19;}
	.st2{fill:#1b1a19;}
	.st3{opacity:0.5;fill:#1b1a19;}
	.st4{fill:#1b1a19;}
	.st5{fill:#1b1a19;}
	.st6{opacity:0.5;fill:#1b1a19;}
	.st7{fill:#646E78;}
	.st8{opacity:0.5;fill:#646E78;}
	.st9{opacity:0.5;fill:#1b1a19;}
	.st10{opacity:0.5;}
	.st11{fill:#121331;}
	.st12{fill:#FFFFFF;}
	.st13{fill:#1b1a19;}
	.st14{fill:none;}
	.st15{opacity:0.5;fill:#F9C9C0;}
	.st16{fill:#B26836;}
	.st17{opacity:0.5;fill:#B26836;}
	.st18{fill:#F28BA8;}
	.st19{opacity:0.5;fill:#F28BA8;}
	.st20{fill:#F24C00;}
	.st21{opacity:0.5;fill:#F24C00;}
	.st22{fill:#92140C;}
	.st23{opacity:0.5;fill:#1b1a19;}
	.st24{opacity:0.5;fill:#92140C;}
	.st25{fill:none;stroke:#121331;stroke-width:7;stroke-linecap:round;stroke-linejoin:round;stroke-miterlimit:10;}
	.st26{fill:#F9C9C0;}
</style>
<path class="st4" d="M178.4,65.9c-0.7,0.9-1.4,1.8-2,2.8c-0.2,0.2-0.3,0.5-0.4,0.7c-0.3,0.4-0.6,0.9-0.8,1.3
	c-0.1,0.2-0.3,0.5-0.4,0.7c-0.4,0.7-0.7,1.3-1,2c-0.1,0.3-0.3,0.6-0.4,0.8c-0.1,0.3-0.3,0.6-0.4,0.9c-0.1,0.3-0.2,0.6-0.4,0.9
	c-0.1,0.3-0.2,0.6-0.3,0.9c-0.2,0.7-0.5,1.4-0.6,2.1c-0.1,0.3-0.2,0.6-0.2,0.9c-0.1,0.3-0.2,0.7-0.2,1c-0.1,0.2-0.1,0.5-0.2,0.8
	c0,0.2-0.1,0.3-0.1,0.5c-0.1,0.2-0.1,0.5-0.1,0.7c-0.1,0.3-0.1,0.7-0.2,1c0,0.2-0.1,0.4-0.1,0.6c0,0.2-0.1,0.5-0.1,0.8
	c-0.1,0.5-0.1,1.1-0.1,1.6c0,0.2,0,0.5,0,0.7c0,0.4,0,0.9,0,1.3c0,4.7,0.9,9.5,2.9,14.2c0.1,0.4,0.3,0.7,0.4,1l-17.1,10.3l-5.4,3.3
	c-0.2-0.3-0.4-0.6-0.6-0.9c-0.2-0.3-0.4-0.7-0.6-1c-0.1-0.2-0.3-0.5-0.4-0.7c-0.2-0.3-0.4-0.6-0.5-1c-0.1-0.2-0.2-0.4-0.3-0.5
	c-0.2-0.3-0.3-0.6-0.5-1c-0.1-0.3-0.3-0.5-0.4-0.8c-0.1-0.1-0.1-0.3-0.2-0.4c-0.6-1.3-1-2.6-1.4-3.9c0,0,0,0,0,0c-0.3-1-0.5-2-0.7-3
	c-0.1-0.3-0.1-0.7-0.2-1v0c-0.1-0.6-0.2-1.2-0.3-1.8c-0.1-0.6-0.1-1.2-0.2-1.8c-0.3-4.1,0.1-8.2,1.2-12.1c0.2-0.7,0.4-1.3,0.6-1.9
	c2.5-7.7,7.7-14.6,14.8-19.2c0.5-0.3,1-0.6,1.5-0.9c1.3-0.8,2.7-1.5,4.2-2.1c0.3-0.1,0.6-0.2,0.9-0.3c0.2-0.1,0.5-0.2,0.7-0.3
	c0.2-0.1,0.4-0.2,0.6-0.2c0.3-0.1,0.6-0.2,0.9-0.3c0.4-0.1,0.9-0.3,1.3-0.4c0.3-0.1,0.7-0.2,1-0.3c0.7-0.2,1.4-0.3,2.2-0.5
	c0.4-0.1,0.8-0.1,1.1-0.2c1.4-0.2,2.5,0.6,3.1,1.6C179.3,63.7,179.3,64.9,178.4,65.9z"/>
<path class="st4" d="M285.3,97.2c0,0.4,0,0.8,0,1.3c0,0.4,0,0.8-0.1,1.3c-0.1,1.2-0.2,2.4-0.4,3.5c-0.2,1.2-0.5,2.4-0.8,3.6
	c-0.1,0.3-0.2,0.6-0.2,0.8c-0.2,0.6-0.4,1.2-0.6,1.8c-0.1,0.3-0.2,0.6-0.3,0.9c-0.1,0.3-0.2,0.6-0.4,0.9c-0.1,0.1-0.1,0.3-0.2,0.4
	c-0.4,1-0.9,1.9-1.4,2.8c-0.3,0.5-0.6,1-0.9,1.6c-0.3,0.5-0.6,1-1,1.5l-10.6-6.3l-12-7.2h0c0.1-0.2,0.1-0.3,0.2-0.5
	c0.1-0.2,0.2-0.3,0.2-0.5c0.5-1.1,0.9-2.2,1.2-3.3c0.1-0.4,0.2-0.7,0.3-1.1c0.3-1,0.5-1.9,0.7-2.9c0-0.2,0.1-0.5,0.1-0.7
	c0-0.1,0.1-0.2,0.1-0.4c0-0.1,0-0.2,0-0.2c0.1-0.4,0.1-0.8,0.2-1.2c0-0.1,0-0.3,0-0.4c0.1-0.4,0.1-0.8,0.1-1.3c0,0,0-0.1,0-0.1
	c0-0.4,0.1-0.9,0.1-1.3c0-0.5,0-0.9,0-1.3v-0.1c0-0.3,0-0.7,0-1v-0.1c0,0,0-0.1,0-0.1c0-0.2,0-0.5,0-0.7c0-0.3,0-0.5-0.1-0.8
	c0-0.2,0-0.5-0.1-0.7c0,0,0-0.1,0-0.1c0,0,0,0,0,0c0-0.2,0-0.5-0.1-0.7c0,0,0,0,0-0.1c0-0.1,0-0.2,0-0.3c0-0.1,0-0.1,0-0.2
	c-0.1-0.4-0.1-0.8-0.2-1.2c0-0.1,0-0.2-0.1-0.3c0-0.1-0.1-0.3-0.1-0.4c0,0,0,0,0-0.1c-0.1-0.2-0.1-0.5-0.1-0.7
	c0-0.1-0.1-0.3-0.1-0.4c-0.1-0.3-0.1-0.6-0.2-1c-0.1-0.3-0.1-0.6-0.2-0.9c0,0,0-0.1,0-0.1c0-0.1-0.1-0.2-0.1-0.4
	c0-0.1-0.1-0.3-0.1-0.5c0,0,0-0.1,0-0.1c0,0,0,0,0,0c-0.1-0.3-0.2-0.6-0.3-0.9c0-0.1,0-0.1-0.1-0.2c-0.1-0.3-0.2-0.5-0.3-0.8
	c-0.1-0.3-0.2-0.6-0.4-0.9c-0.1-0.4-0.3-0.7-0.4-1c0-0.1-0.1-0.2-0.1-0.2c0-0.1-0.1-0.1-0.1-0.2c0,0,0,0,0-0.1
	c0-0.1-0.1-0.2-0.1-0.3c-0.1-0.3-0.3-0.6-0.4-0.9c-0.2-0.4-0.4-0.8-0.6-1.2c-0.1-0.2-0.2-0.4-0.3-0.5h0c-0.2-0.3-0.3-0.6-0.5-0.9h0
	c0,0-0.1-0.1-0.1-0.1c-0.1-0.1-0.1-0.2-0.2-0.3c-0.1-0.2-0.3-0.5-0.4-0.7c-0.6-1-1.3-1.9-2-2.8c-1.6-2,0-5,2.6-4.8
	c0.1,0,0.2,0,0.2,0c0.1,0,0.2,0,0.4,0.1c0,0,0.1,0,0.1,0c0.1,0,0.3,0,0.4,0.1c0.3,0.1,0.7,0.1,1,0.2c0.1,0,0.3,0.1,0.4,0.1
	c0,0,0.1,0,0.1,0c0.1,0,0.2,0,0.3,0.1c0.2,0,0.4,0.1,0.5,0.1c1.3,0.3,2.5,0.7,3.8,1.2c0.2,0.1,0.5,0.2,0.7,0.3
	c0.3,0.1,0.6,0.2,0.9,0.3c0.4,0.2,0.7,0.3,1.1,0.5c0.3,0.2,0.6,0.3,0.9,0.5c0.1,0,0.1,0,0.2,0.1c0.2,0.1,0.4,0.2,0.7,0.3
	c0,0,0,0,0,0c0.2,0.1,0.3,0.2,0.5,0.3c0,0,0,0,0,0c0.3,0.2,0.5,0.3,0.8,0.4c0.3,0.2,0.6,0.4,1,0.6c0.2,0.1,0.3,0.2,0.5,0.3
	c0.2,0.2,0.5,0.3,0.7,0.5c3.3,2.3,6.2,5,8.6,8.2c0.2,0.3,0.4,0.5,0.6,0.8c0.1,0.1,0.2,0.2,0.2,0.3c0.3,0.4,0.5,0.8,0.8,1.1
	c0.3,0.5,0.6,0.9,0.8,1.4c0.1,0.2,0.2,0.4,0.4,0.6c0.1,0.2,0.2,0.4,0.3,0.6c0.2,0.4,0.5,0.9,0.7,1.4c0.2,0.5,0.4,0.9,0.6,1.4
	c0.1,0.2,0.2,0.5,0.3,0.7c0.1,0.2,0.2,0.5,0.3,0.7c0.2,0.5,0.3,1,0.5,1.4c0.2,0.6,0.4,1.3,0.6,1.9c0.1,0.4,0.2,0.8,0.3,1.1
	c0.1,0.4,0.2,0.8,0.2,1.2c0.1,0.3,0.1,0.6,0.2,0.9c0.1,0.3,0.1,0.7,0.2,1.1c0.1,0.4,0.1,0.7,0.1,1.1c0.1,0.7,0.1,1.4,0.2,2.2
	c0,0.2,0,0.5,0,0.7C285.2,96.3,285.3,96.8,285.3,97.2z"/>
<path class="st9" d="M156.5,114.3l-5.4,3.3c-0.2-0.3-0.4-0.6-0.6-0.9c-0.2-0.3-0.4-0.7-0.6-1c-0.1-0.2-0.3-0.5-0.4-0.7
	c-0.2-0.3-0.4-0.6-0.5-1c-0.1-0.2-0.2-0.4-0.3-0.5c-0.2-0.3-0.3-0.6-0.5-1c-0.1-0.3-0.3-0.5-0.4-0.8c-0.1-0.1-0.1-0.3-0.2-0.4
	c-1.1-2.6-1.9-5.2-2.3-7.9v0c-0.2-1.2-0.4-2.4-0.4-3.5c-0.3-4.1,0.1-8.2,1.2-12.1c0.2-0.7,0.4-1.3,0.6-1.9
	c2.5-7.7,7.7-14.6,14.8-19.2c0.5-0.3,1-0.6,1.5-0.9c1.3-0.8,2.7-1.5,4.2-2.1c0.3-0.1,0.6-0.2,0.9-0.3c0.2-0.1,0.5-0.2,0.7-0.3
	c0.2-0.1,0.4-0.2,0.6-0.2c0.3-0.1,0.6-0.2,0.9-0.3c0.4-0.1,0.9-0.3,1.3-0.4c0.3-0.1,0.7-0.2,1-0.3c0.7-0.2,1.4-0.3,2.2-0.5
	c0.4-0.1,0.8-0.1,1.1-0.2c1.4-0.2,2.5,0.6,3.1,1.6C159.1,71.7,149.6,94,156.5,114.3z"/>
<path class="st9" d="M268.8,110.2c-0.2,0.4-0.3,0.7-0.5,1.1l-12-7.2h0c0.1-0.2,0.1-0.3,0.2-0.5c0.1-0.2,0.2-0.3,0.2-0.5
	c0.5-1.1,0.9-2.2,1.2-3.3c0.1-0.4,0.2-0.7,0.3-1.1c0.3-1,0.5-1.9,0.7-2.9c0-0.2,0.1-0.5,0.1-0.7c0-0.1,0.1-0.2,0.1-0.4
	c0-0.1,0-0.2,0-0.2c0.1-0.4,0.1-0.8,0.2-1.2c0-0.1,0-0.3,0-0.4c0.1-0.4,0.1-0.8,0.1-1.3c0,0,0-0.1,0-0.1c0-0.4,0.1-0.9,0.1-1.3
	c0-0.5,0-0.9,0-1.3v-0.1c0-0.3,0-0.7,0-1v-0.1c0,0,0-0.1,0-0.1c0-0.2,0-0.5,0-0.7c0-0.3,0-0.5-0.1-0.8c0-0.2,0-0.5-0.1-0.7
	c0,0,0-0.1,0-0.1c0,0,0,0,0,0l0-0.4c0-0.1,0-0.2,0-0.3c0,0,0,0,0-0.1c0-0.1,0-0.2,0-0.3c0-0.1,0-0.1,0-0.2c-0.1-0.4-0.1-0.8-0.2-1.2
	c0-0.1,0-0.2-0.1-0.3c0-0.1-0.1-0.3-0.1-0.4c0,0,0,0,0-0.1c-0.1-0.2-0.1-0.5-0.1-0.7c0-0.1-0.1-0.3-0.1-0.4c-0.1-0.3-0.1-0.6-0.2-1
	c-0.1-0.3-0.1-0.6-0.2-0.9c0,0,0-0.1,0-0.1c0-0.1-0.1-0.2-0.1-0.4c0-0.1-0.1-0.3-0.1-0.5c0,0,0-0.1,0-0.1c-0.1-0.3-0.2-0.6-0.3-0.9
	c0-0.1,0-0.1-0.1-0.2c-0.1-0.3-0.2-0.5-0.3-0.8c-0.1-0.3-0.2-0.6-0.4-0.9c-0.1-0.4-0.3-0.7-0.4-1c0-0.1-0.1-0.2-0.1-0.2
	c0-0.1-0.1-0.1-0.1-0.2c0,0,0,0,0-0.1c0-0.1-0.1-0.2-0.1-0.3c-0.1-0.3-0.3-0.6-0.4-0.9c-0.2-0.4-0.4-0.8-0.6-1.2
	c-0.1-0.2-0.2-0.4-0.3-0.5c-0.2-0.3-0.3-0.6-0.5-0.9c0,0-0.1-0.1-0.1-0.1c-0.1-0.1-0.1-0.2-0.2-0.3c-0.1-0.2-0.3-0.5-0.4-0.7
	c-0.6-1-1.3-1.9-2-2.8c-1.6-2,0-5,2.6-4.8c0.2,0,0.4,0.1,0.6,0.1c0,0,0.1,0,0.1,0c0.1,0,0.3,0,0.4,0.1c0.3,0.1,0.7,0.1,1,0.2
	c0.1,0,0.3,0.1,0.4,0.1c0,0,0.1,0,0.1,0c0.1,0,0.2,0,0.2,0l0,0C270.9,73.1,276.2,92.7,268.8,110.2z"/>
<path class="st0" d="M368.7,291.4c-0.1,0-0.3,0-0.4,0c-9.7,0.8-18.7-5.5-21.2-14.9c-5-18.1-15.6-33.9-29.9-45.2l-5.5,109.9
	c-0.7,14.7-12.9,26.3-27.6,26.3c-15.2,0-27.6-12.2-27.7-27.4l-0.2-18.6c-0.1-15.2-12.5-27.4-27.7-27.4h-26.4
	c-15.4,0-27.8,12.5-27.7,27.8l0.1,17.8c0.1,15.3-12.3,27.8-27.7,27.8h-0.6c-14.8,0-26.9-11.6-27.7-26.3l-5.5-109.9
	c-14.3,11.3-25,27.1-29.9,45.2c-1.6,5.7-5.5,10.2-10.5,12.8h0c-0.6,0.3-1.3,0.6-1.9,0.8c-0.2,0.1-0.3,0.1-0.5,0.2
	c-0.6,0.2-1.3,0.4-2,0.6c0,0-0.1,0-0.1,0c-0.2,0-0.3,0.1-0.5,0.1c-0.2,0-0.4,0.1-0.6,0.1c0,0,0,0,0,0c-0.1,0-0.2,0-0.2,0
	c-0.3,0.1-0.5,0.1-0.8,0.1c-0.1,0-0.2,0-0.4,0c-0.3,0-0.6,0.1-0.9,0.1h-0.1c-0.4,0-0.8,0-1.2,0c-0.5,0-1.1,0-1.6-0.1
	c-0.1,0-0.3,0-0.4,0c-1.7-0.1-3.3-0.5-4.9-1c-10-3.3-16.2-14.1-13.2-24.8c10-36.5,35.7-66.4,69.4-82.2c1.4-9.1,4-17.9,7.6-26.1
	c2.9-6.7,6.6-13.1,10.9-18.9c0.9-1.3,1.9-2.6,2.9-3.9c0.5-0.6,1-1.2,1.5-1.9c4.6-5.6,9.8-10.6,15.6-15.1c6.9-5.4,14.5-10,22.6-13.5
	c1-0.5,2.1-0.9,3.2-1.3c1.1-0.4,2.1-0.8,3.2-1.2c0.5-0.2,0.9-0.3,1.4-0.5c0.1,0,0.2-0.1,0.3-0.1c2.7-0.9,5.4-1.7,8.2-2.4
	c0.1,0,0.2,0,0.2-0.1c0.5-0.1,1-0.2,1.5-0.4c1.1-0.3,2.3-0.5,3.5-0.7c0.6-0.1,1.1-0.2,1.7-0.3c1.2-0.2,2.3-0.4,3.5-0.6c0,0,0,0,0,0
	c4.8-0.7,9.6-1,14.6-1c52.1,0,94.9,38.4,102.4,87.9c33.7,15.8,59.3,45.7,69.4,82.2C390.1,278,381.5,290.4,368.7,291.4z"/>
<path class="st1" d="M155.7,366.1c-2.8,1-5.8,1.5-9,1.5h-0.6c-14.8,0-26.9-11.6-27.7-26.3L113,231.6c6.4-6.9,13-13,18.6-17.4
	l5.5,127.1C137.7,352.8,145.3,362.5,155.7,366.1z"/>
<path class="st1" d="M200.4,96.5c-44.7,16.2-65.1,60.4-69.1,86.9c-33.7,15.8-59.3,45.7-69.4,82.2c-2.7,9.8,2.1,19.6,10.6,23.8
	c-0.6,0.3-1.3,0.6-1.9,0.8c-0.2,0.1-0.3,0.1-0.5,0.2c-0.6,0.2-1.3,0.4-2,0.6c0,0-0.1,0-0.1,0c-0.2,0-0.3,0.1-0.5,0.1
	c-0.2,0-0.4,0.1-0.6,0.1c0,0,0,0,0,0c-0.1,0-0.2,0-0.2,0c-0.3,0.1-0.5,0.1-0.8,0.1c-0.1,0-0.2,0-0.4,0c-0.3,0-0.6,0.1-0.9,0.1
	c0,0,0,0-0.1,0c-0.4,0-0.8,0-1.2,0c-0.5,0-1.1,0-1.6-0.1c-0.1,0-0.3,0-0.4,0c-1.7-0.1-3.3-0.5-4.9-1c-10-3.3-16.2-14.1-13.2-24.8
	c10-36.5,35.7-66.4,69.4-82.2c1.4-9.1,3.9-17.9,7.6-26.1c3-6.7,6.6-13,10.9-18.9c0.9-1.3,1.9-2.6,2.9-3.9c0.5-0.6,1-1.2,1.5-1.9
	c4.6-5.6,9.9-10.6,15.6-15.1c0,0,0,0,0,0c6.9-5.4,14.5-10,22.6-13.5l0,0c1.1-0.5,2.1-0.9,3.2-1.3c1.1-0.4,2.1-0.8,3.2-1.2
	c0.5-0.2,0.9-0.3,1.4-0.5c0.1,0,0.2-0.1,0.3-0.1c2.7-0.9,5.4-1.7,8.2-2.4c0.1,0,0.2,0,0.2-0.1c0.5-0.1,1-0.2,1.5-0.4
	c1.1-0.3,2.3-0.5,3.5-0.7c0.6-0.1,1.1-0.2,1.7-0.3C198.1,96.8,199.2,96.7,200.4,96.5z"/>
<circle class="st5" cx="179.2" cy="175.6" r="27.1"/>
<circle class="st5" cx="253.3" cy="182.2" r="20.5"/>
<path class="st13" d="M215,248.6c-11.3,0-20.6-9.2-20.6-20.6c0-1.9,1.6-3.5,3.5-3.5s3.5,1.6,3.5,3.5c0,7.5,6.1,13.6,13.6,13.6
	c7.5,0,13.6-6.1,13.6-13.6c0-1.9,1.6-3.5,3.5-3.5s3.5,1.6,3.5,3.5C235.6,239.4,226.3,248.6,215,248.6z"/>
<path class="st2" d="M179.2,183.9c-0.5,0-1,0-1.5-0.1c-0.5-0.1-0.9-0.2-1.4-0.4c-0.5-0.2-0.9-0.4-1.3-0.7c-0.4-0.3-0.8-0.6-1.1-0.9
	c-1.4-1.4-2.2-3.3-2.2-5.3c0-2,0.8-3.9,2.2-5.3c0.4-0.3,0.7-0.7,1.1-0.9c0.4-0.3,0.8-0.5,1.3-0.7c0.5-0.2,0.9-0.3,1.4-0.4
	c2.4-0.5,5,0.3,6.8,2c0.3,0.3,0.7,0.7,0.9,1.1c0.3,0.4,0.5,0.8,0.7,1.3c0.2,0.5,0.3,0.9,0.4,1.4c0.1,0.5,0.1,1,0.1,1.5
	c0,2-0.8,3.9-2.2,5.3C183.1,183.1,181.2,183.9,179.2,183.9z"/>
<path class="st2" d="M253.3,190.5c-0.5,0-1,0-1.5-0.2c-0.5-0.1-0.9-0.2-1.4-0.4c-0.5-0.2-0.9-0.4-1.3-0.7c-0.4-0.3-0.8-0.6-1.1-0.9
	c-1.4-1.4-2.2-3.3-2.2-5.3s0.8-3.9,2.2-5.3c0.3-0.4,0.7-0.7,1.1-0.9c0.4-0.3,0.8-0.5,1.3-0.7c0.5-0.2,0.9-0.3,1.4-0.4
	c1-0.2,2-0.2,2.9,0c0.5,0.1,1,0.2,1.4,0.4c0.5,0.2,0.9,0.4,1.3,0.7c0.4,0.3,0.8,0.6,1.1,0.9c1.4,1.4,2.2,3.3,2.2,5.3
	c0,2-0.8,3.9-2.2,5.3c-0.3,0.3-0.7,0.7-1.1,0.9c-0.4,0.3-0.9,0.5-1.3,0.7c-0.4,0.2-0.9,0.3-1.4,0.4
	C254.3,190.5,253.8,190.5,253.3,190.5z"/>
</svg>
