<svg width="116" height="64" viewBox="0 0 116 64" fill="none" xmlns="http://www.w3.org/2000/svg">
<path d="M40.6296 20.4246H0V27.6369H40.6296V20.4246Z" fill="#1B1A19"/>
<path d="M40.6296 36.3633H0V43.5756H40.6296V36.3633Z" fill="#1B1A19"/>
<path d="M48.3699 52.7876H7.74023V60H48.3699V52.7876Z" fill="#1B1A19"/>
<path d="M48.3699 4H7.74023V11.2124H48.3699V4Z" fill="#1B1A19"/>
<path d="M86.4297 63.0176C91.3034 63.0176 95.6576 62.362 99.4922 61.0508V54.9277C97.8841 55.5215 95.9792 55.9792 93.7773 56.3008C91.5755 56.6471 89.3118 56.8203 86.9863 56.8203C81.791 56.8203 77.2266 55.8431 73.293 53.8887C69.3594 51.9342 66.2793 49.0768 64.0527 45.3164C61.8509 41.556 60.75 36.9792 60.75 31.5859V31.5488C60.75 27.8132 61.3438 24.3991 62.5312 21.3066C63.7188 18.2142 65.3887 15.5547 67.541 13.3281C69.6934 11.0768 72.2539 9.34505 75.2227 8.13281C78.1914 6.92057 81.4694 6.31445 85.0566 6.31445C89.7819 6.31445 93.8887 7.24219 97.377 9.09766C100.89 10.9531 103.599 13.5879 105.504 17.002C107.434 20.3913 108.398 24.4238 108.398 29.0996V29.1367C108.398 32.9466 107.904 35.8906 106.914 37.9688C105.924 40.0221 104.613 41.0488 102.98 41.0488C101.719 41.0488 100.717 40.4674 99.9746 39.3047C99.2324 38.1419 98.8613 36.4473 98.8613 34.2207V16.8906H91.3652V21.5664H91.0684C90.3262 19.8594 89.1387 18.5234 87.5059 17.5586C85.8978 16.569 84.0671 16.0742 82.0137 16.0742C79.5645 16.0742 77.375 16.7298 75.4453 18.041C73.5156 19.3522 71.9941 21.1706 70.8809 23.4961C69.7923 25.8216 69.248 28.5059 69.248 31.5488V31.5859C69.248 34.8268 69.7799 37.6471 70.8438 40.0469C71.9323 42.4466 73.429 44.3145 75.334 45.6504C77.2637 46.9863 79.4902 47.6543 82.0137 47.6543C84.3639 47.6543 86.4297 47.0977 88.2109 45.9844C89.9922 44.8464 91.3529 43.1764 92.293 40.9746H92.627L92.9609 41.6426C93.7279 43.3991 94.9277 44.8464 96.5605 45.9844C98.2181 47.0977 100.185 47.6543 102.461 47.6543C104.984 47.6543 107.211 46.9121 109.141 45.4277C111.095 43.9434 112.617 41.8034 113.705 39.0078C114.818 36.1875 115.375 32.7982 115.375 28.8398V28.8027C115.375 22.9889 114.101 17.9421 111.553 13.6621C109.029 9.38216 105.504 6.07943 100.977 3.75391C96.474 1.40365 91.2415 0.228516 85.2793 0.228516C80.653 0.228516 76.4102 0.983073 72.5508 2.49219C68.6914 4.0013 65.3516 6.14128 62.5312 8.91211C59.7357 11.6829 57.571 14.9857 56.0371 18.8203C54.528 22.6302 53.7734 26.8607 53.7734 31.5117V31.5488C53.7734 36.472 54.5651 40.888 56.1484 44.7969C57.7318 48.681 59.9831 51.9714 62.9023 54.668C65.8216 57.3893 69.2728 59.4551 73.2559 60.8652C77.2389 62.3001 81.6302 63.0176 86.4297 63.0176ZM84.0547 40.8262C82.7435 40.8262 81.6055 40.4674 80.6406 39.75C79.7005 39.0326 78.9707 38.0059 78.4512 36.6699C77.9316 35.3092 77.6719 33.6764 77.6719 31.7715V31.7344C77.6719 29.8542 77.9316 28.2585 78.4512 26.9473C78.9707 25.6113 79.7005 24.597 80.6406 23.9043C81.6055 23.1868 82.7559 22.8281 84.0918 22.8281C86.071 22.8281 87.6543 23.6198 88.8418 25.2031C90.054 26.7865 90.6602 28.9512 90.6602 31.6973V31.8086C90.6602 34.5794 90.054 36.7812 88.8418 38.4141C87.6543 40.0221 86.0586 40.8262 84.0547 40.8262Z" fill="#1B1A19"/>
</svg>
