<svg width="86" height="87" viewBox="0 0 86 87" fill="none" xmlns="http://www.w3.org/2000/svg">
<path d="M32.0944 33.0902C31.7494 33.4352 31.5077 33.8702 31.3944 34.3435C31.2827 34.8185 31.3044 35.3152 31.4594 35.7785L47.9343 85.2452C48.1177 85.7585 48.4561 86.2035 48.9011 86.5185C49.3478 86.8335 49.8812 87.0002 50.4263 87.0002H50.5846C51.1613 86.9635 51.7114 86.7385 52.1481 86.3585C52.5848 85.9785 52.8848 85.4669 53.0015 84.9002L58.257 59.2519L83.9079 53.9969C84.6663 53.8385 85.3164 53.3535 85.6847 52.6719C86.0531 51.9902 86.1015 51.1802 85.8181 50.4602C85.5347 49.7402 84.9497 49.1802 84.2146 48.9302L34.7464 32.4552C34.288 32.3085 33.7996 32.2885 33.3312 32.4019C32.8645 32.5135 32.4361 32.7519 32.0944 33.0902Z" fill="#1B1A19"/>
<path d="M26.3672 57.3389L14 69.9995" stroke="#1B1A19" stroke-width="6"/>
<path d="M26.3672 57.3398L14 70.0005" stroke="#1B1A19" stroke-width="6"/>
<path d="M19 39L-5.30429e-07 39" stroke="#1B1A19" stroke-width="6"/>
<path d="M24.501 24.4995L11.5014 11.4987" stroke="#1B1A19" stroke-width="6"/>
<path d="M38.9989 18.4999L38.998 7.21632e-08" stroke="#1B1A19" stroke-width="6"/>
<path d="M53 24.4995L66.5 11.498" stroke="#1B1A19" stroke-width="6"/>
</svg>
