<svg width="84" height="84" viewBox="0 0 84 84" fill="none" xmlns="http://www.w3.org/2000/svg">
<path d="M42 0C18.8032 0 0 18.8032 0 42C0 65.1968 18.8032 84 42 84C65.1968 84 84 65.1968 84 42C84 18.8032 65.2018 0 42 0ZM61.2596 60.5775C60.5073 61.8113 58.8923 62.2025 57.6585 61.4452C47.7979 55.4215 35.3845 54.0573 20.7643 57.3977C19.3549 57.7187 17.9506 56.8359 17.6296 55.4266C17.3086 54.0172 18.1863 52.6129 19.6007 52.2919C35.6002 48.6355 49.3227 50.2104 60.3969 56.9764C61.6308 57.7337 62.022 59.3437 61.2646 60.5775H61.2596ZM66.4005 49.1371C65.4526 50.6769 63.4364 51.1634 61.8966 50.2154C50.6066 43.2739 33.3984 41.2627 20.042 45.3203C18.3117 45.8419 16.481 44.8689 15.9544 43.1385C15.4328 41.4082 16.4108 39.5825 18.1361 39.0559C33.3883 34.4266 52.352 36.6685 65.3172 44.6382C66.8569 45.5861 67.3434 47.6023 66.3955 49.1421L66.4005 49.1371ZM66.8419 37.2252C53.305 29.1853 30.9709 28.4481 18.0459 32.3702C15.9694 32.9971 13.7776 31.8285 13.1457 29.7521C12.5187 27.6757 13.6874 25.4839 15.7638 24.8519C30.5997 20.348 55.2661 21.2207 70.8493 30.4693C72.7201 31.5777 73.332 33.9902 72.2235 35.851C71.1201 37.7167 68.7027 38.3337 66.8419 37.2252Z" fill="#FCF3E4"/>
</svg>
