<svg width="697" height="121" viewBox="0 0 697 121" fill="none" xmlns="http://www.w3.org/2000/svg">
<path d="M99.5283 54.4803C107.822 54.4803 109.611 61.4733 109.611 71.231V117.905H142.137V67.3279C142.137 38.7054 131.891 28.4599 113.514 28.4599C98.3899 28.4599 89.2827 34.1519 82.9402 43.259C79.1998 33.0135 71.5563 28.4599 58.546 28.4599C46.0237 28.4599 37.567 32.8508 32.5256 40.0065V30.4114H0V117.905H32.5256V72.0442C32.5256 59.1966 36.9165 54.4803 44.7227 54.4803C53.0167 54.4803 54.8056 61.4733 54.8056 71.231V117.905H87.3312V72.0442C87.3312 59.1966 91.7221 54.4803 99.5283 54.4803Z" fill="#1B1A19"/>
<path d="M204.496 117.905H237.021V30.4114H204.496V75.2967C204.496 88.3069 200.105 93.0232 192.786 93.0232C189.046 93.0232 186.444 91.8848 184.655 89.608C183.191 87.4938 182.216 84.0786 182.216 77.0856V30.4114H149.69V83.5907C149.69 98.0646 151.967 106.196 156.358 111.4C161.399 117.417 169.531 120.019 179.288 120.019C191.648 120.019 199.454 114.327 204.496 106.033V117.905Z" fill="#1B1A19"/>
<path d="M248.166 0V117.905H280.692V105.871C284.595 113.514 294.027 120.019 307.038 120.019C326.553 120.019 345.255 104.407 345.255 74.1583C345.255 43.9095 326.553 28.4599 307.038 28.4599C294.027 28.4599 284.595 34.965 280.692 42.6085V0H248.166ZM279.554 74.1583C279.554 60.9855 286.221 52.6914 295.328 52.6914C304.598 52.6914 310.453 61.7986 310.453 74.1583C310.453 86.518 304.598 95.7878 295.328 95.7878C286.221 95.7878 279.554 87.3312 279.554 74.1583Z" fill="#1B1A19"/>
<path d="M403.913 62.4491C366.834 65.0512 346.018 73.3452 346.018 93.8363C346.018 109.449 360.329 120.019 377.242 120.019C389.602 120.019 400.498 116.279 407.003 106.521V117.905H437.252C436.439 110.75 435.625 100.341 435.625 91.3969V82.7776L435.788 66.0269C436.276 36.7539 418.387 27.3215 393.18 27.3215C364.557 27.3215 349.433 43.259 348.132 59.6844H376.104C377.242 52.0409 382.609 48.4631 390.903 48.4631C397.896 48.4631 403.913 50.4146 403.913 60.0097V62.4491ZM405.051 81.3139C405.051 94.8121 397.733 98.2272 389.439 98.2272C381.796 98.2272 378.706 93.9989 378.706 90.2585C378.706 82.615 387.65 79.8503 405.051 78.7119V81.3139Z" fill="#1B1A19"/>
<path d="M525.517 36.9165C518.199 33.0135 503.237 28.1346 486.161 28.1346C463.556 28.1346 444.528 37.8923 444.528 56.1066C444.528 72.532 457.376 80.5008 475.753 83.5907L485.022 85.3796C492.015 86.6807 495.105 87.6564 495.105 90.7464C495.105 93.8363 489.739 95.1373 483.721 95.1373C470.711 95.1373 459.49 90.5837 451.521 86.1928L439.487 108.798C449.244 114.815 463.23 120.019 485.185 120.019C510.718 120.019 526.98 109.611 526.98 89.2827C526.98 72.8573 513.32 67.0027 494.292 63.5875L482.908 61.4733C477.054 60.3349 476.078 58.2208 476.078 56.4319C476.078 54.4803 478.517 52.6914 484.209 52.6914C495.268 52.6914 507.14 56.5945 515.109 59.8471L525.517 36.9165Z" fill="#1B1A19"/>
<path d="M532.352 30.4114V117.905H564.878V30.4114H532.352ZM534.352 0C533.248 0 532.352 0.895431 532.352 2V21.0932C532.352 22.1977 533.248 23.0932 534.352 23.0932H562.878C563.982 23.0932 564.878 22.1977 564.878 21.0932V2C564.878 0.895432 563.982 0 562.878 0H534.352Z" fill="#1B1A19"/>
<path d="M617.628 26.9962C589.493 26.9962 570.791 45.8611 570.791 73.6704C570.791 101.155 586.891 120.182 617.465 120.182C642.835 120.182 659.098 103.106 662.513 83.5907H632.589C631.776 89.2827 627.06 95.9505 618.766 95.9505C607.707 95.9505 603.967 85.8675 603.967 73.5078C603.967 61.3107 607.057 51.2278 618.929 51.2278C626.735 51.2278 631.288 58.0582 632.102 63.9128H662.025C659.423 44.3974 643.323 26.9962 617.628 26.9962Z" fill="#1B1A19"/>
</svg>
