<svg width="1831" height="916" viewBox="0 0 1831 916" fill="none" xmlns="http://www.w3.org/2000/svg">
<g clip-path="url(#clip0_203_192)">
<path d="M411.027 1196.23L1136.33 829L1474 997.38L749.925 1371L411 1196.26L411.027 1196.23Z" fill="black"/>
<path d="M1138.06 3161L1880 2773.39L1506 206L1137 394.388L1138.06 3161V3161Z" fill="#F74C04"/>
<path d="M1848 2789.85L1846.66 383.409L1506 206L1506.79 2963L1848 2789.85V2789.85Z" fill="#D9D9D9"/>
<path d="M411.841 1196L42 952.6L1136.84 395L1137 828.907L411.841 1196Z" fill="#F74C04"/>
<path d="M42.8452 2504L412 2315.86L411.155 764L42 952.383L42.8452 2503.97V2504Z" fill="#F74C04"/>
<path d="M1137 828.213L374.93 0L-1 638.772L760.988 1020L1137 828.213V828.213Z" fill="black"/>
<path d="M1136.97 829L1136.81 394.995L375 0L375.055 445.635L1137 829H1136.97Z" fill="#D9D9D9"/>
<path d="M-0.509265 639L375 445.371L374.946 0L-1 191.337L-0.536556 639H-0.509265Z" fill="#F74C04"/>
</g>
<defs>
<clipPath id="clip0_203_192">
<rect width="1831" height="915.5" fill="white"/>
</clipPath>
</defs>
</svg>
